<svg version="1.2" xmlns="http://www.w3.org/2000/svg" viewBox="0 0 24 24" width="24" height="24">
	<title>user_other_sessions_filter_selected-svg</title>
	<style>
		.s0 { fill: #3b88d2 } 
	</style>
	<path id="Layer" class="s0" d="m13 6h-9c-0.5 0-1 0.5-1 1 0 0.5 0.5 1 1 1h9.3q-0.3-0.9-0.3-2z"/>
	<path id="Layer" class="s0" d="m15.7 11q1 0.7 2.3 0.9 0 0.1 0 0.1c0 0.6-0.4 1-1 1h-10c-0.5 0-1-0.4-1-1 0-0.6 0.5-1 1-1z"/>
	<path id="Layer" class="s0" d="m11 18h2c0.6 0 1-0.4 1-1 0-0.6-0.4-1-1-1h-2c-0.6 0-1 0.4-1 1 0 0.6 0.4 1 1 1z"/>
	<path id="Layer" class="s0" d="m19 9c1.7 0 3-1.3 3-3 0-1.7-1.3-3-3-3-1.7 0-3 1.3-3 3 0 1.7 1.3 3 3 3z"/>
</svg>