<svg version="1.2" xmlns="http://www.w3.org/2000/svg" viewBox="0 0 70 70" width="70" height="70">
	<title>onboarding_celebration_icon-svg</title>
	<style>
		.s0 { fill: #3b88d2 } 
	</style>
	<path id="Layer" fill-rule="evenodd" class="s0" d="m0 35c0-19.3 15.7-35 35-35 19.3 0 35 15.7 35 35 0 19.3-15.7 35-35 35-19.3 0-35-15.7-35-35zm34.9 7.2l2.7 8.2c0.1 0.4 0.5 0.7 0.9 0.7 0.5 0 0.9-0.3 1-0.7l2.7-8.2 8.2-2.7c0.4-0.1 0.7-0.5 0.7-1 0-0.4-0.3-0.8-0.7-0.9l-8.2-2.7-2.7-8.2c-0.1-0.4-0.5-0.7-1-0.7-0.4 0-0.8 0.3-0.9 0.7l-2.7 8.2-8.2 2.7c-0.4 0.1-0.7 0.5-0.7 0.9 0 0.5 0.3 0.9 0.7 1zm-15-19.2l-1.8 3.5c-0.2 0.4-0.1 0.9 0.2 1.2 0.3 0.3 0.8 0.4 1.2 0.2l3.5-1.8 3.6 1.8c0.4 0.2 0.8 0.1 1.1-0.2 0.3-0.3 0.4-0.8 0.2-1.2l-1.8-3.5 1.8-3.6c0.2-0.4 0.1-0.8-0.2-1.1-0.3-0.3-0.7-0.4-1.1-0.2l-3.6 1.8-3.5-1.8c-0.4-0.2-0.9-0.1-1.2 0.2-0.3 0.3-0.4 0.7-0.2 1.1z"/>
</svg>