<svg version="1.2" xmlns="http://www.w3.org/2000/svg" viewBox="0 0 24 24" width="24" height="24">
	<title>action_live-svg</title>
	<style>
		.s0 { fill: #3b88d2 } 
	</style>
	<path id="Layer" class="s0" d="m20.2 4.2c-0.3-0.4-1-0.5-1.4-0.2-0.4 0.3-0.5 1-0.2 1.4q0 0.1 0.1 0.1 0.1 0.1 0.2 0.4c0.2 0.3 0.5 0.8 0.8 1.4 0.6 1.2 1.1 2.8 1.1 4.7 0 1.9-0.5 3.5-1.1 4.7-0.3 0.6-0.6 1.1-0.8 1.4q-0.1 0.3-0.2 0.4-0.1 0-0.1 0.1c-0.3 0.4-0.2 1.1 0.2 1.4 0.4 0.3 1.1 0.3 1.4-0.2l-0.8-0.6c0.8 0.6 0.8 0.6 0.8 0.6q0.1-0.1 0.1-0.2 0.1-0.1 0.3-0.4c0.3-0.4 0.6-0.9 0.9-1.6 0.6-1.4 1.3-3.4 1.3-5.6 0-2.2-0.7-4.2-1.3-5.6-0.3-0.7-0.6-1.2-0.9-1.6q-0.2-0.3-0.3-0.4 0-0.1-0.1-0.2c0 0 0 0-0.8 0.6z"/>
	<path id="Layer" class="s0" d="m17.6 7.8c-0.3-0.4-1-0.5-1.4-0.2-0.4 0.3-0.5 1-0.2 1.4q0 0 0 0.1 0.1 0 0.1 0.1 0.2 0.2 0.4 0.7c0.3 0.5 0.5 1.3 0.5 2.1 0 0.8-0.2 1.6-0.5 2.1q-0.2 0.5-0.4 0.7 0 0.1-0.1 0.2 0 0 0 0c-0.3 0.4-0.2 1.1 0.2 1.4 0.4 0.3 1.1 0.3 1.4-0.2l-0.8-0.6c0.8 0.6 0.8 0.6 0.8 0.6q0 0 0.1-0.1 0-0.1 0.1-0.2 0.2-0.4 0.5-0.9c0.3-0.7 0.7-1.8 0.7-3 0-1.2-0.4-2.3-0.7-3q-0.3-0.5-0.5-0.9-0.1-0.1-0.1-0.2-0.1-0.1-0.1-0.1c0 0 0 0-0.8 0.6z"/>
	<path id="Layer" class="s0" d="m3.6 19.8c0.3 0.5 1 0.5 1.4 0.2 0.4-0.3 0.5-1 0.2-1.4q0-0.1-0.1-0.1-0.1-0.1-0.2-0.4c-0.2-0.3-0.5-0.8-0.8-1.4-0.6-1.2-1.1-2.8-1.1-4.7 0-1.9 0.5-3.5 1.1-4.7 0.3-0.6 0.6-1.1 0.8-1.4q0.1-0.3 0.2-0.4 0.1 0 0.1-0.1c0.3-0.4 0.2-1.1-0.2-1.4-0.4-0.3-1.1-0.2-1.4 0.2l0.8 0.6c-0.8-0.6-0.8-0.6-0.8-0.6q-0.1 0.1-0.1 0.2-0.1 0.1-0.3 0.4c-0.3 0.4-0.6 0.9-0.9 1.6-0.6 1.4-1.3 3.4-1.3 5.6 0 2.2 0.7 4.2 1.3 5.6 0.3 0.7 0.6 1.2 0.9 1.6q0.2 0.3 0.3 0.4 0 0.1 0.1 0.2c0 0 0 0 0.8-0.6z"/>
	<path id="Layer" class="s0" d="m6.2 16.2c0.3 0.5 1 0.5 1.4 0.2 0.4-0.3 0.5-1 0.2-1.4q0 0 0 0-0.1-0.1-0.1-0.2-0.2-0.2-0.4-0.7c-0.3-0.5-0.5-1.3-0.5-2.1 0-0.8 0.2-1.6 0.5-2.1q0.2-0.5 0.4-0.7 0-0.1 0.1-0.2 0 0 0 0c0.3-0.4 0.2-1.1-0.2-1.4-0.4-0.3-1.1-0.2-1.4 0.2l0.8 0.6c-0.8-0.6-0.8-0.6-0.8-0.6q0 0-0.1 0.1 0 0.1-0.1 0.2-0.2 0.4-0.5 0.9c-0.3 0.7-0.7 1.8-0.7 3 0 1.2 0.4 2.3 0.7 3q0.3 0.5 0.5 0.9 0.1 0.1 0.1 0.2 0.1 0.1 0.1 0.1c0 0 0 0 0.8-0.6z"/>
	<path id="Layer" class="s0" d="m12 14c-1.1 0-2-0.9-2-2 0-1.1 0.9-2 2-2 1.1 0 2 0.9 2 2 0 1.1-0.9 2-2 2z"/>
</svg>