<svg version="1.2" xmlns="http://www.w3.org/2000/svg" viewBox="0 0 18 18" width="10" height="10">
	<title>user_other_sessions_verified-svg</title>
	<style>
		.s0 { fill: #0273e9 } 
		.s1 { fill: #ffffff } 
	</style>
	<path id="Layer" class="s0" d="m1.1 9.3v-7l7.9-2.3 7.9 2.3v7c0 7.2-7.9 8.7-7.9 8.7 0 0-7.9-1.5-7.9-8.7z"/>
	<path id="Layer" class="s1" d="m13.1 5.1c-0.2-0.2-0.6-0.2-0.8 0l-4.8 4.5-1.8-1.3c-0.2-0.1-0.5-0.1-0.7 0.1-0.3 0.2-0.3 0.6-0.1 0.9l2 2.3q0.1 0.1 0.1 0.1c0.4 0.3 1 0.3 1.3-0.1l4.8-5.8c0.1-0.2 0.1-0.5 0-0.7z"/>
</svg>