<svg version="1.2" xmlns="http://www.w3.org/2000/svg" viewBox="0 0 28 28" width="28" height="28">
	<title>light-and-dark-theme-mentions-svg</title>
	<style>
		.s0 { fill: #ff5b55 } 
		.s1 { fill: #3b88d2 } 
	</style>
	<path id="Layer" class="s0" d="m23 10c-2.8 0-5-2.2-5-5 0-2.8 2.2-5 5-5 2.8 0 5 2.2 5 5 0 2.8-2.2 5-5 5z"/>
	<path id="Layer" fill-rule="evenodd" class="s1" d="m16.1 6q0.1 1.1 0.6 2.1 0.5 1 1.3 1.9 0.9 0.8 1.9 1.3 1 0.5 2.1 0.6v9.1q0 0.6-0.2 1.1-0.3 0.6-0.7 1-0.4 0.4-1 0.7-0.5 0.2-1.1 0.2h-11.3q-0.1 0-0.2 0-0.1 0-0.1 0.1-0.1 0-0.2 0-0.1 0.1-0.1 0.1l-3.5 2.6q-0.2 0.2-0.5 0.2-0.3 0-0.5-0.1-0.3-0.1-0.5-0.4-0.1-0.2-0.1-0.5v-17q0-0.6 0.2-1.1 0.3-0.6 0.7-1 0.4-0.4 1-0.7 0.5-0.2 1.1-0.2zm-10.1 6q-0.4 0-0.7 0.3-0.3 0.3-0.3 0.7 0 0.4 0.3 0.7 0.3 0.3 0.7 0.3h12q0.4 0 0.7-0.3 0.3-0.3 0.3-0.7 0-0.4-0.3-0.7-0.3-0.3-0.7-0.3zm-0.9 5.4q0.1 0.2 0.2 0.3 0.2 0.1 0.3 0.2 0.2 0.1 0.4 0.1h6q0.4 0 0.7-0.3 0.3-0.3 0.3-0.7 0-0.4-0.3-0.7-0.3-0.3-0.7-0.3h-6q-0.2 0-0.4 0.1-0.1 0.1-0.3 0.2-0.1 0.1-0.2 0.3-0.1 0.2-0.1 0.4 0 0.2 0.1 0.4z"/>
</svg>