<svg width="96" height="94" viewBox="0 0 96 94" fill="none" xmlns="http://www.w3.org/2000/svg">
<g clip-path="url(#clip0_88_4)">
<path d="M57.6992 0.700195C36.6992 0.700195 19.6992 15.6002 19.6992 34.1002C19.6992 52.6002 36.6992 67.5002 57.6992 67.5002C65.2992 67.5002 72.3992 65.5002 78.3992 62.1002C83.7992 65.3002 89.5992 65.2002 92.8992 64.7002C93.8992 64.6002 94.0992 63.3002 93.2992 62.8002C89.9992 60.7002 88.2992 57.7002 87.2992 55.0002C92.5992 49.3002 95.7992 42.0002 95.7992 34.0002C95.7992 15.6002 78.6992 0.700195 57.6992 0.700195ZM77.0992 48.1002H38.2992C36.6992 48.1002 35.2992 46.8002 35.2992 45.1002C35.2992 43.4002 36.5992 42.1002 38.2992 42.1002H77.0992C78.6992 42.1002 80.0992 43.4002 80.0992 45.1002C80.0992 46.8002 78.7992 48.1002 77.0992 48.1002ZM77.0992 37.0002H38.2992C36.6992 37.0002 35.2992 35.7002 35.2992 34.0002C35.2992 32.3002 36.5992 31.0002 38.2992 31.0002H77.0992C78.6992 31.0002 80.0992 32.3002 80.0992 34.0002C80.0992 35.7002 78.7992 37.0002 77.0992 37.0002ZM77.0992 25.9002H57.0992C55.4992 25.9002 54.0992 24.6002 54.0992 22.9002C54.0992 21.2002 55.3992 19.9002 57.0992 19.9002H77.0992C78.6992 19.9002 80.0992 21.2002 80.0992 22.9002C80.0992 24.6002 78.7992 25.9002 77.0992 25.9002ZM57.6992 74.0002C59.1992 74.0002 60.6992 73.9002 62.0992 73.8002C58.0992 85.1002 46.0992 93.4002 31.7992 93.4002C25.4992 93.4002 19.5992 91.8002 14.5992 88.9002C10.0992 91.6002 5.29922 91.5002 2.49922 91.1002C1.69922 91.0002 1.49922 90.0002 2.19922 89.5002C4.89922 87.7002 6.39922 85.2002 7.19922 83.0002C2.79922 78.2002 0.199219 72.2002 0.199219 65.6002C0.199219 56.1002 5.69922 47.6002 14.0992 42.6002C18.4992 60.5002 36.3992 74.0002 57.6992 74.0002Z" fill="#0074DC"/>
</g>
<defs>
<clipPath id="clip0_88_4">
<rect width="96" height="94" fill="white"/>
</clipPath>
</defs>
</svg>
