<svg version="1.2" xmlns="http://www.w3.org/2000/svg" viewBox="0 0 70 70" width="70" height="70">
	<title>onboarding_use_case_icon-svg</title>
	<style>
		.s0 { fill: #3b88d2 } 
	</style>
	<path id="Layer" fill-rule="evenodd" class="s0" d="m0 35c0-19.3 15.7-35 35-35 19.3 0 35 15.7 35 35 0 19.3-15.7 35-35 35-19.3 0-35-15.7-35-35zm32.2 11.4c-2.1 0-4-0.4-5.8-1.2 2.6 4.9 7.7 8.2 13.6 8.2 2.4 0 4.7-0.6 6.7-1.5l5.5 1.7c2.1 0.6 4-1.3 3.4-3.3l-1.7-5.6c0.9-2.1 1.5-4.3 1.5-6.7 0-5.8-3.3-10.9-8-13.5 1 2 1.7 4.2 1.7 6.5 0 8.5-8.4 15.4-16.9 15.4zm-3.5-35.5c-8.5 0-15.4 6.9-15.4 15.4 0 2.4 0.5 4.7 1.5 6.7l-1.7 5.6c-0.7 2.1 1.3 4 3.3 3.3l5.6-1.7c2 1 4.3 1.5 6.7 1.5 8.6 0 15.5-6.9 15.5-15.4 0-8.5-6.9-15.4-15.5-15.4z"/>
</svg>